<svg width="13" height="13" viewBox="0 0 13 13" fill="none" xmlns="http://www.w3.org/2000/svg">
<path d="M12.33 10.8089L9.89574 8.37464C9.78587 8.26476 9.63694 8.20372 9.48067 8.20372H9.0827C9.75657 7.34185 10.157 6.25778 10.157 5.0785C10.157 2.27312 7.88388 0 5.0785 0C2.27312 0 0 2.27312 0 5.0785C0 7.88388 2.27312 10.157 5.0785 10.157C6.25778 10.157 7.34185 9.75657 8.20372 9.0827V9.48067C8.20372 9.63694 8.26476 9.78587 8.37464 9.89574L10.8089 12.33C11.0384 12.5595 11.4095 12.5595 11.6366 12.33L12.3276 11.639C12.5571 11.4095 12.5571 11.0384 12.33 10.8089ZM5.0785 8.20372C3.3523 8.20372 1.95327 6.80714 1.95327 5.0785C1.95327 3.3523 3.34985 1.95327 5.0785 1.95327C6.8047 1.95327 8.20372 3.34985 8.20372 5.0785C8.20372 6.8047 6.80714 8.20372 5.0785 8.20372Z" fill="#515151"/>
</svg>
